<svg xmlns="http://www.w3.org/2000/svg" viewBox="0 0 260 260" width="260" height="260">
  <defs>
    <linearGradient id="g1" x1="100%" y1="100%" x2="0%" y2="0%">
      <stop offset="0%" stop-color="#C9A84C" stop-opacity="0.7"/>
      <stop offset="100%" stop-color="#8B7535" stop-opacity="0.25"/>
    </linearGradient>
    <linearGradient id="g2" x1="100%" y1="100%" x2="0%" y2="0%">
      <stop offset="0%" stop-color="#C9A84C" stop-opacity="0.45"/>
      <stop offset="100%" stop-color="#8B7535" stop-opacity="0.12"/>
    </linearGradient>
    <linearGradient id="g3" x1="100%" y1="100%" x2="20%" y2="20%">
      <stop offset="0%" stop-color="#E8C86A" stop-opacity="0.5"/>
      <stop offset="100%" stop-color="#8B7535" stop-opacity="0.1"/>
    </linearGradient>
  </defs>
  <!-- === PRIMARY TENDRIL from bottom-right === -->
  <path d="M260,260 C235,252 210,238 192,215 C178,197 180,175 195,162 C205,153 218,155 220,165 C222,172 215,178 208,174"
        fill="none" stroke="url(#g1)" stroke-width="3" stroke-linecap="round"/>
  <!-- === SECONDARY TENDRIL upward === -->
  <path d="M260,260 C248,235 242,205 246,175 C249,155 255,140 260,125"
        fill="none" stroke="url(#g2)" stroke-width="2.2" stroke-linecap="round"/>
  <!-- === TERTIARY TENDRIL left along bottom === -->
  <path d="M260,260 C225,254 190,252 155,258 C135,262 120,255 125,242 C128,234 138,232 140,240"
        fill="none" stroke="url(#g2)" stroke-width="2" stroke-linecap="round"/>
  <!-- === FOURTH TENDRIL diagonal === -->
  <path d="M260,260 C220,245 180,225 150,205 C130,192 122,175 132,165"
        fill="none" stroke="url(#g3)" stroke-width="1.5" stroke-linecap="round"/>
  <!-- === BAROQUE SPIRAL 1 === -->
  <path d="M195,162 C182,150 165,152 155,164 C148,172 152,186 162,190 C170,193 176,186 172,180 C169,176 164,177 163,181"
        fill="none" stroke="url(#g1)" stroke-width="2.2" stroke-linecap="round"/>
  <!-- === BAROQUE SPIRAL 2 === -->
  <path d="M125,242 C115,232 105,235 102,244 C100,250 105,255 110,253 C113,252 114,248 111,247"
        fill="none" stroke="url(#g2)" stroke-width="1.5" stroke-linecap="round"/>
  <!-- === THORNED VINE along bottom === -->
  <path d="M260,260 Q220,255 180,260 Q150,263 120,257"
        fill="none" stroke="url(#g2)" stroke-width="1.2" stroke-linecap="round"/>
  <path d="M225,258 L222,251 L219,258" fill="none" stroke="url(#g2)" stroke-width="0.9"/>
  <path d="M195,259 L192,252 L189,259" fill="none" stroke="url(#g2)" stroke-width="0.9"/>
  <path d="M165,260 L162,253 L159,260" fill="none" stroke="url(#g2)" stroke-width="0.9"/>
  <path d="M140,258 L137,251 L134,258" fill="none" stroke="url(#g2)" stroke-width="0.9"/>
  <!-- === THORNED VINE along right edge === -->
  <path d="M260,260 Q257,225 260,190 Q262,160 258,130"
        fill="none" stroke="url(#g2)" stroke-width="1.2" stroke-linecap="round"/>
  <path d="M258,230 L251,227 L258,224" fill="none" stroke="url(#g2)" stroke-width="0.9"/>
  <path d="M259,205 L252,202 L259,199" fill="none" stroke="url(#g2)" stroke-width="0.9"/>
  <path d="M258,180 L251,177 L258,174" fill="none" stroke="url(#g2)" stroke-width="0.9"/>
  <path d="M259,155 L252,152 L259,149" fill="none" stroke="url(#g2)" stroke-width="0.9"/>
  <!-- === ARCANE CIRCLE with ALL-SEEING EYE === -->
  <circle cx="208" cy="174" r="18" fill="none" stroke="url(#g1)" stroke-width="1.2" stroke-dasharray="4,2.5"/>
  <circle cx="208" cy="174" r="13" fill="none" stroke="url(#g2)" stroke-width="0.9"/>
  <circle cx="208" cy="174" r="8" fill="none" stroke="url(#g3)" stroke-width="0.7"/>
  <!-- Eye -->
  <path d="M198,174 Q208,166 218,174 Q208,182 198,174 Z" fill="none" stroke="url(#g1)" stroke-width="1.3"/>
  <circle cx="208" cy="174" r="2.5" fill="#C9A84C" opacity="0.55"/>
  <circle cx="208" cy="174" r="1" fill="#0A0E14" opacity="0.6"/>
  <!-- === INVERTED TRIANGLE accent === -->
  <path d="M155,164 L145,180 L135,164 Z" fill="none" stroke="url(#g2)" stroke-width="1"/>
  <circle cx="145" cy="169" r="2" fill="#C9A84C" opacity="0.3"/>
  <!-- === FINE FILIGREE CURLS === -->
  <path d="M132,165 C120,155 108,160 110,170 C112,178 120,180 122,174"
        fill="none" stroke="url(#g2)" stroke-width="1.3" stroke-linecap="round"/>
  <path d="M246,175 C252,165 248,152 238,150 C230,148 226,155 230,160"
        fill="none" stroke="url(#g3)" stroke-width="1.2" stroke-linecap="round"/>
  <!-- === DECORATIVE DOTS === -->
  <circle cx="235" cy="205" r="2" fill="#C9A84C" opacity="0.3"/>
  <circle cx="180" cy="220" r="1.5" fill="#C9A84C" opacity="0.25"/>
  <circle cx="150" cy="240" r="1.8" fill="#C9A84C" opacity="0.2"/>
  <circle cx="252" cy="165" r="1.5" fill="#C9A84C" opacity="0.2"/>
  <circle cx="120" cy="210" r="1.2" fill="#C9A84C" opacity="0.18"/>
  <circle cx="215" cy="140" r="1.3" fill="#C9A84C" opacity="0.15"/>
  <!-- === CORNER ANCHOR LINES === -->
  <line x1="260" y1="260" x2="238" y2="260" stroke="url(#g1)" stroke-width="3"/>
  <line x1="260" y1="260" x2="260" y2="238" stroke="url(#g1)" stroke-width="3"/>
  <!-- === TINY RUNIC MARKS === -->
  <path d="M100,248 L95,255 L90,248" fill="none" stroke="url(#g3)" stroke-width="0.8"/>
  <path d="M255,120 L250,127 L245,120" fill="none" stroke="url(#g3)" stroke-width="0.8"/>
</svg>
